<svg xmlns="http://www.w3.org/2000/svg" version="1.1" viewBox="-5.0 -10.0 110.0 135.0">
 <path d="m45.805 21.008c-3.8047-3.1875-8.5195-5.3242-13.695-5.9688 4.1289-5.3477 10.602-8.793 17.875-8.793s13.746 3.4453 17.875 8.793c-5.1758 0.64063-9.8906 2.7812-13.695 5.9688-1.3633-0.21484-2.7578-0.32812-4.1797-0.32812s-2.8164 0.11328-4.1797 0.32812z" fill-rule="evenodd"/>
 <path d="m17.316 60.738c-6.625-3.9336-11.066-11.164-11.066-19.422 0-12.457 10.113-22.574 22.574-22.574 0.32031 0 0.63672 0.007812 0.95312 0.019531 4.0938 0.17188 7.9102 1.4336 11.16 3.5078-5.4492 1.9844-10.066 5.7109-13.18 10.504-2.6875 4.1445-4.25 9.082-4.25 14.387 0 1.2305 0.085938 2.4414 0.24609 3.6289-1.6875 0.51953-3.3242 1.2109-4.8828 2.0703-1.2695 0.69922-2.0469 2.0469-2.0195 3.4961 0.027344 1.4766 0.18359 2.9414 0.46094 4.3828z" fill-rule="evenodd"/>
 <path d="m76.215 50.789c0.16406-1.1875 0.24609-2.3984 0.24609-3.6289 0-5.3008-1.5625-10.242-4.25-14.387-3.1094-4.793-7.7266-8.5195-13.18-10.504 3.25-2.0742 7.0664-3.3359 11.16-3.5078 0.31641-0.011719 0.63281-0.019531 0.95312-0.019531 12.457 0 22.574 10.113 22.574 22.574 0 8.2578-4.4453 15.484-11.066 19.422 0.27734-1.4414 0.43359-2.9062 0.46094-4.3828 0.027344-1.4492-0.75-2.7969-2.0195-3.4961-1.5547-0.85938-3.1914-1.5508-4.8828-2.0703z" fill-rule="evenodd"/>
 <path d="m27.578 49.926c-0.10938-0.90625-0.16797-1.8281-0.16797-2.7656 0-12.457 10.113-22.574 22.574-22.574 12.457 0 22.574 10.113 22.574 22.574 0 0.9375-0.058594 1.8594-0.16797 2.7656-3.1094-0.46094-6.3164-0.35547-9.4531 0.35938-2.0156-5.5938-5.918-10.289-10.934-13.316-1.2422-0.75-2.7969-0.75-4.0352 0-5.0195 3.0312-8.918 7.7266-10.934 13.32-3.1367-0.71484-6.3438-0.82031-9.4531-0.35937z" fill-rule="evenodd"/>
 <path d="m45.934 77.441c-4.7539 0.74219-9.7812-0.070312-14.27-2.6602-6.8672-3.9648-10.762-11.105-10.91-18.5 5.707-3.1484 12.703-3.6719 18.984-1.0391 1.1016-6.332 4.9375-11.727 10.242-14.93 5.3047 3.2031 9.1406 8.6016 10.242 14.93 6.2812-2.6328 13.277-2.1094 18.984 1.0391-0.14453 7.3945-4.043 14.535-10.91 18.5-4.4883 2.5898-9.5156 3.4062-14.27 2.6602v15.305c0 0.53906-0.4375 0.97656-0.97656 0.97656h-6.1484c-0.53906 0-0.97656-0.4375-0.97656-0.97656v-15.305z" fill-rule="evenodd"/></svg>