<svg xmlns="http://www.w3.org/2000/svg" version="1.1" viewBox="-5.0 -10.0 110.0 135.0">
 <path d="m55.504 29.969c1.4023-10.211 3.0273-17.16 5.1055-21.434-12.152 8.4688-19.984 38.297-19.984 49.277 0 11.949 7.9336 22.074 18.809 25.402-4.293-5.5703-6.3086-15.73-6.3086-25.402 0-2.1406 0.62109-15.035 2.3789-27.844z"/>
 <path d="m73.766 8.5352c2.0781 4.2734 3.7031 11.223 5.1055 21.434 1.7578 12.809 2.3789 25.703 2.3789 27.844 0 9.668-2.0156 19.832-6.3086 25.402 10.875-3.3281 18.809-13.453 18.809-25.402 0-10.98-7.832-40.809-19.984-49.277z"/>
 <path d="m67.188 6.25c-8.3164 0-10.938 47.199-10.938 51.562 0 12.875 3.832 26.562 10.938 26.562s10.938-13.688 10.938-26.562c0-4.3633-2.6211-51.562-10.938-51.562z"/>
 <path d="m26.688 74.23c-1.0703-1.8516-6.9805-13.332-11.859-25.301-3.8906-9.5469-5.957-16.375-6.2969-21.113-6.293 13.41 1.8398 43.156 7.332 52.668 5.9727 10.348 17.906 15.152 28.988 12.594-6.5-2.6797-13.328-10.469-18.164-18.844z"/>
 <path d="m35.062 37.25c1.5781 2.0156 3.1094 4.0625 4.5625 6.0625 0.76562-3.2969 1.75-6.8281 2.9375-10.344-7.5-6.1562-15.812-11.156-22.641-11.734 3.9375 2.6719 8.8281 7.875 15.141 16.016z"/>
 <path d="m37.5 57.812c0-2.5781 0.42188-6.2031 1.2344-10.375-8.7969-12.312-21.047-27.547-25.656-24.891-7.1875 4.1562 14.141 46.344 16.312 50.125 6.4375 11.141 16.609 21.078 22.75 17.531 1.7656-1.0156 2.7188-2.8594 3.0625-5.2344-10.578-4.7031-17.703-15.422-17.703-27.156z"/></svg>