<svg xmlns="http://www.w3.org/2000/svg" version="1.1" viewBox="-5.0 -10.0 110.0 135.0">
 <path d="m58.352 3.3984c-1.4453 0.42969-2.6719 1.2656-3.5977 2.2578-0.92578 0.99219-1.625 2.1328-1.625 3.5234l-1.543 20.188c-4.4375 3.3867-9.8789 6.1953-14.98 8.4688-3.4648 1.543-6.7656 2.8516-9.5 3.9688-4.6445 1.8984-5.793 2.8359-6.7344 3.5586-2.3672 2.2148-3.3984 5.5586-3.1367 9.6797 0.12891 2.0703 1.2852 3.707 2.793 4.75l-7.9531 1.9883c-2.5859 0.23828-4.8828 1.1719-6.4531 2.8047-1.9023 1.9805-2.6094 4.3242-2.4766 6.3945 0.13281 2.0664 1.0117 3.8516 2.1797 5.0859 1.043 1.1016 2.6602 2.4531 4.7109 3.0898 1.0078 0.3125 2.1758 0.35938 3.3125 0.0625 0.10156 1.3398 0.46875 2.6484 1.207 3.7695 1.2227 1.8555 3.0625 3.3633 5.1719 4.0938 3.7188 1.1875 6.8672-1.5 26.918-9.0352-0.75781 4.4688-1.332 3.6992-1.332 6.7656 0 2.9961 1.7578 6.0039 4.5664 8.3008s6.7578 3.875 11.371 3.7422c4.4297-0.12891 8.0039-1.0586 10.473-3.2734 2.3906-2.1406 3.4648-5.3945 3.293-9.4102l0.35938-17.227 15.852-6.1211c1.5977-0.62109 5.8516-3.8594 5.6445-10.957-0.058594-2.0469-0.51953-3.9844-1.5508-5.5039-1.3945-2.0547-3.6758-2.4688-5.0352-2.1406l-14.465 3.6172 0.74609-35.699c0.015625-1.0898-1.2539-5.1641-5.3516-5.4492-1.7656-0.12109-3.6484 0.48438-5.4727 1.7656-0.76172-1.1953-1.6641-2.0742-2.6836-2.6289-1.4844-0.80859-3.1758-0.89453-4.707-0.4375zm3.2109 3.1836c0.75 0.41016 1.6016 1.3008 2.3242 3.125 1.1602 3.5625 1.5859 10.004 1.4141 17.461-0.17188 7.4766-0.88281 16.027-1.7578 24.086-1.3867 12.777-3 23.074-3.6445 27.027-2.0273-1.832-6.6641-2.7656-10.016-1.0977 0.35938-2.1523 0.71484-4.6914 1.082-7.8281 0.88281-7.543 1.7617-16.727 2.543-25.621 1.5625-17.793 2.7383-34.441 2.7383-34.441 0.042968-0.67188 0.66406-1.3672 0.78906-1.5039 0.5625-0.60547 1.3906-1.1523 2.2031-1.3945 0.82812-0.24609 1.5664-0.22266 2.3203 0.1875zm9.4375 1.2383c1.3672 0.09375 2.1914 0.8125 2.4375 2.4648l-1.4375 68.609c-2.6602-1.7148-6.543-1.7617-8.9062-0.64844 0.79297-5.0156 2.3008-15.023 3.5625-26.656 0.87891-8.1133 1.6016-16.73 1.7734-24.352 0.16406-7.1992-0.125-13.434-1.3594-17.777 1.5273-1.2305 2.9336-1.7109 3.9297-1.6406zm-19.75 25.551c-0.26953 3.2773-0.54688 6.6094-0.85156 10.094-0.21094 2.3906-0.44141 4.7617-0.66406 7.1523l-2.8633 2.6602c-0.25781-2.75-1.9453-5.457-4.5273-7.5703-2.082-1.7031-4.793-3.0117-7.9336-3.5234 1.1133-0.46875 2.2656-0.96094 3.4609-1.4922 4.4414-1.9805 9.1484-4.3906 13.375-7.3242zm-10.879 14.754c2.2422 1.832 3.418 4.1875 3.418 5.8789 0 1.9414-0.69531 3.1602-1.6328 4.0195-0.9375 0.85937-2.1953 1.293-3.1289 1.3359-1.1133 0.050781-2.8516-0.13281-3.9961-0.70703-1.1445-0.57422-1.7617-1.1406-1.5703-2.9219 0.17969-1.7148 1.0664-2.2031 2.0664-2.3242s1.8633 0.32422 2.0742 1.0391c0.24609 0.82813 1.1172 1.3008 1.9453 1.0547s1.3008-1.1172 1.0547-1.9453c-0.71875-2.4102-3.207-3.5234-5.4492-3.2539-0.85938 0.10547-2.0352 0.73438-2.7852 1.2969-0.33594-0.20703-0.71484-1.4961-1.375-2.418-0.5-0.70313-1.4766-0.86328-2.1797-0.36328s-0.86328 1.4766-0.36328 2.1797c1.7734 2.4844 1.8477 4.0352 1.4727 4.9883s-1.418 1.7031-2.9023 2.0391c-1.4844 0.33594-3.2812 0.17187-4.5703-0.42578-1.2891-0.59375-2.0234-1.4062-2.1094-2.7539-0.22656-3.6094 0.58594-5.8047 2.2422-7.2891 3.8555-2.7891 12.176-4.1641 17.781 0.5625zm-25.961 16.762c2.8867 0.23047 6.1172 1.5117 8.8125 4.2617 2.8242 2.8789 4.2305 5.4414 4.3945 7.6562 0.16406 2.2188-0.76953 4.3633-3.4375 6.8086-0.99219 0.91016-2.0898 0.98828-3.4297 0.52344-1.3398-0.46484-2.75-1.5938-3.5859-2.8633-0.83594-1.2695-1.0703-2.5273-0.67969-3.4766s1.5234-2.0195 4.5234-2.5781c0.84766-0.16016 1.4062-0.97266 1.25-1.8203-0.16016-0.84766-0.97266-1.4062-1.8203-1.25-1.082 0.20312-1.8125 0.63672-2.6602 0.99609-0.078125-1.1523-0.44531-2.25-1.1133-3.0703-1.4258-1.7461-3.9922-2.668-6.1797-1.4297-0.75 0.42578-1.0156 1.3789-0.58984 2.1289s1.3789 1.0156 2.1289 0.58984c0.64844-0.36719 1.582-0.09375 2.2188 0.6875 0.63672 0.78125 0.93359 1.7461-0.12109 3.1055-1.0977 1.4141-1.9336 1.3945-3.1562 1.0156s-2.6055-1.4492-3.3711-2.2578c-0.64062-0.67578-1.2461-1.8672-1.3281-3.1328-0.082031-1.2695 0.26172-2.625 1.6094-4.0234 2.0898-2.1719 6.1523-1.9023 6.5391-1.8711zm42.785 15.289c1.1445 0.57422 1.7617 1.1367 1.5703 2.918-0.17969 1.7148-1.0664 2.2031-2.0664 2.3242-1 0.12109-1.8633-0.32812-2.0742-1.043-0.24609-0.82812-1.1172-1.3008-1.9453-1.0547-0.82813 0.24609-1.3008 1.1172-1.0547 1.9453 0.71875 2.4102 3.207 3.5234 5.4453 3.2539 1.0508-0.125 2.0742-0.66406 2.9297-1.4414 0.36328 0.84766 0.58594 1.668 1.2266 2.5664 0.5 0.70312 1.4805 0.86719 2.1836 0.36328 0.70312-0.5 0.86328-1.4766 0.36328-2.1797-1.7734-2.4844-1.8477-4.0391-1.4727-4.9922 0.375-0.95313 1.4141-1.6992 2.8984-2.0352 1.4844-0.33594 3.2812-0.17188 4.5703 0.42188 1.2891 0.59375 2.0234 1.4102 2.1094 2.7539 0.22656 3.6094-0.58594 5.8047-2.2422 7.2891s-4.4414 2.3594-8.4766 2.4766c-3.8477 0.11328-7.0625-1.207-9.3047-3.0391-2.2422-1.832-3.418-4.1875-3.418-5.8789 0-1.9414 0.69141-3.1602 1.6289-4.0156 2.7461-2.5117 6.7891-0.79688 7.125-0.62891z"/></svg>