<svg xmlns="http://www.w3.org/2000/svg" xmlns:xlink="http://www.w3.org/1999/xlink" version="1.2" baseProfile="tiny" x="0px" y="0px" viewBox="0 0 100 125" xml:space="preserve"><path d="M59.3017578,72.7822266c-1.3193359,0-2.5927734-0.4179688-4.0859375-0.9101563l-0.8007813-0.2607422  C47.847168,69.5,42.2822266,62.8535156,44.9038086,54.6953125c2.3901367-7.4384766,9.9624023-10.4711914,16.2016602-9.6308594  c2.2070313,0.2988281,3.7275391,1.1635742,5.2460938,2.9838867c2.8457031,3.4086914,4.3671875,5.6118164,2.5517578,11.2631836  c-0.1933594,0.6015625-0.3925781,1.2763672-0.6044922,1.9902344c-1.1337891,3.8261719-2.5439453,8.5888672-5.2041016,10.2597656  C61.671875,72.4550781,60.46875,72.7822266,59.3017578,72.7822266z M55.0263672,69.7070313l0.8144531,0.265625  c2.6308594,0.8662109,3.9521484,1.3007813,6.1894531-0.1044922c2.0214844-1.2695313,3.3681641-5.8154297,4.3505859-9.1347656  c0.2167969-0.7294922,0.4208984-1.4189453,0.6181641-2.0332031c1.5078125-4.6914063,0.4853516-6.1748047-2.1826172-9.3701172  c-1.2119141-1.4521484-2.2529297-2.0498047-3.9785156-2.2836914c-4.3798828-0.5927734-11.734375,1.1171875-14.0297852,8.2602539  C44.5834961,62.2294922,49.3823242,67.8925781,55.0263672,69.7070313L55.0263672,69.7070313z"/><path d="M89.8222656,50.1181641c-3.6203003-5.963623-9.4070435-10.5476074-16.3546143-13.0546265  c-1.1320801-0.7340088-2.3492432-1.3059082-3.6522217-1.6353149c-3.2177734-0.8132324-6.7460938-0.986145-10.2845459-0.5740356  C54.9138794,24.2657471,45.4760742,17.5,35.0834961,17.5c-15.0810547,0-27.3505859,14.0810547-27.3505859,31.3891602  s12.2695313,31.3891602,27.3505859,31.3891602c2.9227905,0,5.7871704-0.5350952,8.5415649-1.576416  c3.2367554,3.2276611,7.1026611,5.6671753,11.1854858,6.9377441c1.692627,0.526001,3.3930054,0.8336182,5.0609741,0.9454956  c2.2949219,0.4884644,4.5852661,0.7459106,6.8296509,0.7459106c11.8457031,0,22.4267578-6.5595703,25.8222656-17.1240234  C94.6425781,63.6132813,93.6826172,56.4785156,89.8222656,50.1181641z M41.503418,69.1484375  c-2.7607422-5.3144531-3.4047852-10.9677734-1.8134766-15.9189453  c3.9204102-12.2016602,19.6166992-16.3334961,29.1450195-13.9233398c4.3662109,1.1040039,7.9697266,6.5883789,9.1425781,11.1879883  c0.6806641,2.6689453-0.5615234,5.3886719-2.1337891,8.8330078c-0.828125,1.8144531-1.7675781,3.8701172-2.4980469,6.1435547  c-0.8378906,2.6083984-0.9804688,5.046875-1.1054688,7.1982422c-0.1533203,2.6289063-0.2753906,4.7050781-1.5722656,6.1748047  c-3.1240234,3.5371094-9.0185547,4.734375-14.6699219,2.9755859C50.0893555,79.9814453,44.6708984,75.2441406,41.503418,69.1484375z  "/></svg>