<svg xmlns="http://www.w3.org/2000/svg" version="1.1" viewBox="-5.0 -10.0 110.0 135.0">
 <path d="m74.582 26.262-6.9336 10.301 24.434-4.7695c-6.3984-2.5898-12.234-4.4297-17.5-5.5273zm-6.5508 12.258 10.301 6.9375c0.92188-0.61719 1.8555-1.2734 2.7969-1.9727 3.6211-2.6719 7.4023-5.918 11.336-9.7344zm8.4766 8.1172-11.25-7.5742-6.8359 1.332c2.7383 1.082 5.3086 2.7305 7.5508 4.9766 1.5039 1.5195 2.7227 3.1562 3.6914 4.8984 2.2148-0.95703 4.4922-2.168 6.8438-3.6367zm-11.633-9.5352 7.5742-11.246c-3.9648-0.69531-7.5859-0.94141-10.867-0.74219l-9.3047 13.824c0.63281 0.058594 1.2656 0.14062 1.8945 0.25391l10.707-2.0898zm-14.941 1.7461 9.0703-13.473c-0.48828 0.070312-0.97266 0.14844-1.4414 0.24219-8.3203 1.6211-14.012 6.7852-17.066 15.484 2.9727-1.4531 6.1992-2.2031 9.4375-2.2539zm-19.223-26.609-3.4609 8.043 3.082 7.7266 4.4297-10.293c-1.0234-1.7969-2.3711-3.625-4.0508-5.4766zm-5.3086 8.7812-8.043-3.4609c0.046875 1.8555 0.21094 3.582 0.49609 5.1719 0.097656 0.54688 0.21094 1.0781 0.33594 1.5938l10.293 4.4258-3.082-7.7266zm-8.043-5.6328 6.9961 3.0078-5.6953-14.297c-0.78906 4.1562-1.2227 7.9219-1.3008 11.285zm8.8477 2.2695 3.0078-6.9922c-0.76953-0.76953-1.5859-1.5469-2.4648-2.3281-1.8398-1.6367-3.918-3.293-6.2383-4.9688zm9.7148 2.418-4.543 10.559 2.0469 5.1328c0.33203-0.42578 0.64062-0.84766 0.92969-1.2773 2.7148-4.0195 3.4688-8.1719 2.2578-12.453-0.18359-0.65234-0.41406-1.3047-0.69141-1.9648zm-6.3945 11.301-10.559-4.543c1.2422 3.25 3.1953 5.6992 5.8633 7.3477 2.1797 0.09375 4.3398 0.56641 6.3828 1.4219l-1.6836-4.2266zm-9.793 14.988c0.71875 0.71875 1.0742 1.6562 1.0742 2.5938s-0.35938 1.8789-1.0742 2.5938c-0.71875 0.71875-1.6562 1.0742-2.5938 1.0742-0.93359 0-1.8711-0.35938-2.5898-1.0781-0.71875-0.71484-1.0781-1.6523-1.0781-2.5938 0-0.93359 0.35547-1.8711 1.1094-2.6211 0.74219-0.70703 1.6523-1.043 2.5547-1.043 0.9375 0 1.8789 0.35938 2.5938 1.0742zm-1.4141 1.4141c-0.32812-0.32812-0.75391-0.48828-1.1797-0.48828-0.40625 0-0.81641 0.14844-1.1562 0.46484-0.34766 0.34766-0.51172 0.77734-0.51172 1.2031s0.16016 0.85156 0.48828 1.1797c0.32031 0.32812 0.75 0.48828 1.1797 0.48828 0.42578 0 0.85547-0.16016 1.1797-0.48828 0.32813-0.32812 0.48828-0.75391 0.48828-1.1797s-0.16016-0.85547-0.48828-1.1797zm6.3438 36.094c0.69531 0.73047 1.043 1.6719 1.043 2.6055 0 0.96484-0.36719 1.9336-1.1055 2.6719-0.74219 0.74219-1.7148 1.1133-2.6797 1.1133-0.96875 0-1.9375-0.36719-2.6797-1.1055-0.73828-0.73828-1.1094-1.7109-1.1094-2.6797s0.37109-1.9375 1.1094-2.6797c0.73828-0.73828 1.7109-1.1094 2.6797-1.1094 0.96484 0 1.9336 0.37109 2.7422 1.1797zm-0.95703 2.6055c0-0.4375-0.16016-0.87891-0.49609-1.2422-0.37109-0.37109-0.82813-0.54688-1.2852-0.54688s-0.91406 0.17578-1.2617 0.52344c-0.34766 0.34766-0.52344 0.80859-0.52344 1.2617 0 0.45703 0.17578 0.91797 0.52344 1.2617 0.34766 0.34766 0.80859 0.52344 1.2617 0.52344 0.46094 0 0.91797-0.17578 1.2656-0.51953 0.34375-0.34766 0.51953-0.80859 0.51953-1.2656zm39.598-27.789c0.94531 0.94531 1.4141 2.1836 1.4141 3.4219 0 1.2344-0.47266 2.4727-1.4141 3.418-0.94141 0.94531-2.1797 1.4141-3.418 1.4141-1.2344 0-2.4766-0.47266-3.418-1.4141s-1.4141-2.1836-1.4141-3.4219c0-1.2344 0.47266-2.4727 1.4492-3.4453 0.96875-0.93359 2.1797-1.3867 3.3828-1.3867 1.2344 0 2.4727 0.47266 3.418 1.4141zm-0.58203 3.4219c0-0.72656-0.27734-1.4531-0.82812-2.0039s-1.2773-0.82812-2.0039-0.82812c-0.70312 0-1.4102 0.26172-1.9805 0.80469-0.57422 0.57422-0.85156 1.3008-0.85156 2.0273s0.27734 1.4531 0.82812 2.0039c0.55469 0.55469 1.2773 0.83203 2.0039 0.83203s1.4531-0.27734 2.0039-0.82812c0.55469-0.55078 0.82812-1.2734 0.82812-2.0039zm-17.652 20.496c-3.8477-0.92188-7.4922-2.8828-10.496-5.8828-4.207-4.1992-6.3672-9.6641-6.5-15.164-2.168-0.023438-4.3398 0.35156-6.3945 1.125-2.2383 0.84375-4.3438 2.1641-6.1797 3.9844-3.4531 3.457-5.168 7.9453-5.168 12.434 0 4.4883 1.7148 8.9805 5.1406 12.406 3.4258 3.4297 7.918 5.1406 12.406 5.1406 4.4648 0 8.9336-1.6953 12.375-5.1055 1.3906-1.3945 2.4844-2.9219 3.3008-4.543 0.70312-1.4023 1.2109-2.8789 1.5195-4.3906zm-16.953-23.043c0.34375-5.1797 2.4922-10.262 6.4492-14.219 0.88672-0.88672 1.8359-1.6875 2.8281-2.3945-0.15625-0.21484-0.32031-0.42969-0.48828-0.63672-0.35156-0.43359-0.73047-0.85938-1.1602-1.2891-3.2539-3.2539-7.4805-4.8633-11.711-4.8633-4.207 0-8.4141 1.5938-11.652 4.8086-3.25 3.2539-4.8633 7.4805-4.8633 11.707 0 4.2266 1.6133 8.457 4.8398 11.68 0.34375 0.34375 0.68359 0.65625 1.0156 0.9375l0.37109 0.30469 0.34375-0.35156c2.043-2.0234 4.3906-3.4961 6.8867-4.4375 2.2969-0.86328 4.7227-1.2852 7.1406-1.2539zm36.41-12.801c-3.9414-3.9414-9.1094-5.9141-14.273-5.9141-5.168 0-10.332 1.9727-14.27 5.9102s-5.9102 9.1094-5.9102 14.27c0 5.168 1.9727 10.332 5.9102 14.27 2.9531 2.9531 6.5938 4.8008 10.426 5.543 1.2734 0.24609 2.5625 0.36719 3.8477 0.36719 5.1406 0 10.285-1.9531 14.246-5.8828 3.9727-3.9688 5.9414-9.1367 5.9414-14.301 0-5.1406-1.9531-10.285-5.9102-14.27z"/></svg>