<svg xmlns="http://www.w3.org/2000/svg" xmlns:xlink="http://www.w3.org/1999/xlink" version="1.1" x="0px" y="0px" viewBox="0 0 100 125" style="enable-background:new 0 0 100 100;" xml:space="preserve"><path d="M93,23.2c-0.8-0.4-5.3,3.9-10,8.3c-1.5-0.6-4.4-1.5-7.3-1.8c1.5-1.9,2.7-3.4,3.2-4.2c2.1-2.8,3.9-5.7,5.3-7.3  c5.2-5.4,2.7,0.9,4.2,0c0.6-0.4,1.8-7.6-3.1-4.1c-1,0.7-5.7,6.6-8.2,9.2c-1.8,1.9-3.2,3.9-4.9,6.1c-0.3,0-0.6,0-0.8,0.1  c-2.9,0.3-5.7,2.2-7.4,3.7c0.2-1.4,0-3.1-0.4-4.8c3-3.2,7.4-9.9,8.4-11c1.1-1.2,3.1-1.3,3.1-1.3s2.4-2.8-2.5-2.4  c-2.9,0.2-7,5.7-10.4,10.7c-1.2-3.1-2.3-6.1-2.9-7.2c-0.3-0.5-0.8-1.2-1.6-1.3c-0.8-0.1-2.4,1.4-2.6,1.5c-1.3,1.2-4.1,4.7-6.5,9.9  c-1.1,2.4-0.9,4.7-0.5,6.3c-2-1-4.9-1.7-9.5-0.8c-5.4,1.1-8.7,5.9-10.3,8.2c-0.3,0.4-1.7,1.8-1,2.8c0.8,1,3.3,0.1,3.9,0.1  c0,0,0,0,0,0c0.7,0,2.8,1.2,4.5,2.1c2,1.1,4.1,2.3,5.6,2.6c0.7,0.1,1.2,0.2,1.7,0.3c-0.2,0.3-0.4,0.6-0.6,0.8  c-0.6,0.8-2.1,2.7-4.2,5.2c-3.3,2.2-9.8,7.1-12,8.1c-2.6,1.2-10.2,6.7-13.5,8.9c-3.3,2.2-6.1-1-6.8-3.4c-0.7-2.4,1.3-3.5,2.5-3.9  c1.2-0.4,1.3,1.3,1.3,1.3c2-0.2,0.5-4.3-0.4-4.2c-2.7,0.2-7.7,4.4-3.7,9.8c4,5.4,6.1,3.1,9.4,1.7c1.8-0.8,9-5.1,15.9-9.3  c-3.6,4.3-7.3,8.7-10,11.8c-1.6,1.9-5.6,4.6-8.7,4.8c-4.9,0.3-5.7-0.2-6.3-1.9c-0.3-0.8-0.8,0.3-0.8,0.5c-0.3,3.5,4.3,5.8,9.6,3.7  c5.5-2.2,17.5-13.9,20.2-17.6c1.4-1.9,2.8-3.8,4.3-5.7c0,0.1,0,0.3-0.1,0.4c-0.2,1-0.5,1.9-0.7,2.6c-0.4,1.4-0.7,2.3,0.1,2.9  c0.2,0.2,0.5,0.3,0.8,0.3c0.5,0,0.9-0.2,1.1-0.3c0.2-0.1,0.4-0.2,0.7-0.3C33,72.6,29,76.2,27,82.2c-1.3,3.9,1.8,5.2,3.9,5  c1-0.1,1.1-1.1,0.5-1.3c-1.8-0.8-4.5-1.6,0.3-7c3-3.3,11.1-10.5,14.3-14.2c0.2-0.3,0.5-0.7,0.7-0.7h-0.3c2.6-0.4,5.3-1,6.9-2.1  c2.2-1.6,3.4-4.3,4-6.4c1.1,2.1,3.2,3.7,8,5c1.7,0.5,4.2,2.6,4.9,3.7c0.5,0.7,1.3,0.8,1.7,0.5c1.9-0.9,2.4-7.2,1.4-11.6  c-0.8-3.7-2.7-5.7-4.2-6.8c1.3-0.3,2.9-0.7,4.4-1.6c1.6-0.9,3.1-2.7,4.4-4.5c2.3-1.8,4.1-3.3,5-4.2c2.8-2.8,8.9-7.3,10.2-7.9  C94.7,27.6,94.3,23.8,93,23.2z M72.6,43.1c-1.7,0.9-3.7,1.3-4.9,1.6c-1.1,0.2-1.7,0.3-1.9,1l-0.2,0.6l0.4,0.4  c0.2,0.2,0.4,0.3,0.7,0.5c1.1,0.6,3.8,2.1,4.8,6.4c0.8,3.6,0.4,7.3-0.1,8.8c-1.2-1.3-3.5-3.2-5.5-3.8c-6.1-1.7-6.9-3.6-7.4-5.9  c-0.1-0.6-0.3-1.5-1.2-1.5c-0.9,0-1.1,0.7-1.4,1.9c-0.4,1.8-1.3,5.4-3.8,7.2c-1.5,1.1-4.6,1.6-7.3,2c-1.7,0.3-3.3,0.5-4.5,0.9  c0-0.1,0-0.1,0.1-0.2c0.2-0.8,0.5-1.7,0.7-2.8c0.1-0.4,0.1-0.8,0.2-1.3c0.3-2.1,0.6-5,3-6.9c4-3.3,4.2-3.9,3.9-5  c-0.2-0.8-1.8-0.5-2.1-0.4c-1.5,0.5-1.9,0.6-4.6,0.1c-1.2-0.2-3.2-1.4-5-2.4c-2.2-1.2-4.2-2.3-5.4-2.3c0,0,0,0,0,0  c-0.4,0-0.8,0.1-1.2,0.1c1.5-2.3,4.4-6.4,9-7.3c5.6-1.1,8.3,0.4,9.8,1.7c0.3,0.2,0.9,0.8,1.6,0.3c0.7-0.5,0.4-1.2,0.2-1.9  c-0.5-1.3-1.4-4-0.1-6.8c2.2-4.8,4.8-8.2,6-9.2c0.2-0.2,0.9-0.8,1-0.9c0.4-0.5,2.3,4.8,3.5,8.6l0.4,1c1,2.7,0.8,4.7,0.7,5.4  c-0.1,0.5-0.2,1-0.3,1.4c-0.2,1-0.4,1.8,0.4,2.2c0.2,0.1,0.8,0.3,1.4-0.3c1.1-1.1,4.8-4.5,8.2-4.9c3.2-0.4,7.8,0.8,9.9,1.5  c-0.6,0.3-1.2,0.7-1.9,1.3c-0.4,0.4-0.9,1.1-1.5,2.2C76.7,38.7,74.5,42,72.6,43.1z"/><g><path d="M63,41.7c0-1.1,1.2-2.2,0.7-3.1c-0.4-1-2.1-0.6-2.8-1.3c-0.8-0.7-0.5-2.8-1.5-3.1c-0.9-0.4-2.2,1.8-3.3,1.8   c-1.1,0-2.4-2-3.3-1.6c-0.9,0.4-0.6,2.3-1.3,3.1c-0.7,0.8-2.7,0.6-3.1,1.5c-0.3,1,1.2,2.3,1.3,3.4c0,1.1-1.3,2.1-0.8,3   c0.4,1,2.3,1.1,3,1.8c0.8,0.7,0.6,2.5,1.6,2.9c0.9,0.4,2.1-0.9,3.2-0.9c1.1,0,2.3,1.2,3.3,0.7c1-0.4,0.6-2.3,1.3-3.1   c0.7-0.8,2.8-0.8,3.2-1.8C64.7,44.1,63,42.8,63,41.7z M59.1,43.6c-0.4,0.2-1.7-0.5-3-0.5c-1.3,0-1.3,1.2-2.7,0.5   c-1.7-0.8,0.6-4.5,2.3-4.7C59.7,38.5,60.5,43,59.1,43.6z"/></g><path d="M64.1,42.1c-0.9-1.2,0.9-4.1,5-5.7c4.8-1.9,8.9-4.4,9.1-2.3c0.1,0.8-3.7,0-8.3,4.4C67.9,40.4,65.1,43.3,64.1,42.1z"/><path d="M54.7,33.5c0,0-1.4-2.2,0.7-6.6c2.3-4.8,0.4-6.6,2.2-6.5c1.4,0.1-1,7.8-0.8,11.6S55.4,35.4,54.7,33.5z"/><path d="M33.5,40.1c-0.2,2.3,2.9-0.8,6.4,0.6c2.8,1.2,8,2.7,9,2.1C51.9,40.7,33.6,37.8,33.5,40.1z"/><path d="M42.7,61.3c0,0,1.3-3.1,4.9-5.8c3.3-2.5,2.3-7.1,4.2-6.8c2,0.4-1.2,6.1-2.3,7.5C46.6,59.8,42.5,62.8,42.7,61.3z"/><path d="M63.8,51.1c-1.8-1.4-3.1-3-1.9-3.8c1.1-0.9,4.5,3.1,5.7,5.3c1.2,2.2,4.3,6.9,2.8,7.4C69.3,60.3,69.3,55.4,63.8,51.1z"/></svg>